<svg id="Layer_1" data-name="Layer 1" xmlns="http://www.w3.org/2000/svg" xmlns:xlink="http://www.w3.org/1999/xlink" viewBox="0 0 140 140"><defs><style>.cls-1{fill:#0f183c;}.cls-2{fill:url(#linear-gradient);}.cls-3{fill:url(#linear-gradient-2);}.cls-11,.cls-4,.cls-8{isolation:isolate;}.cls-4{font-size:15.33px;font-family:Montserrat-ExtraBold, Montserrat;font-weight:800;letter-spacing:0.05em;}.cls-4,.cls-8{fill:#d3d3d3;}.cls-5{letter-spacing:0.06em;}.cls-6{letter-spacing:0.07em;}.cls-7{letter-spacing:0.06em;}.cls-8{font-size:7.03px;font-family:Montserrat-Bold, Montserrat;font-weight:700;letter-spacing:0.05em;}.cls-9{letter-spacing:0.04em;}.cls-10{letter-spacing:0.01em;}.cls-11{font-size:9.66px;fill:#92bce1;font-family:Mshtakan;letter-spacing:0.07em;}</style><linearGradient id="linear-gradient" x1="55.13" y1="81" x2="101.68" y2="81" gradientTransform="matrix(1, 0, 0, -1, 0, 142)" gradientUnits="userSpaceOnUse"><stop offset="0" stop-color="#58c8e0"/><stop offset="1" stop-color="#243a77"/></linearGradient><linearGradient id="linear-gradient-2" x1="52.69" y1="68.8" x2="97.64" y2="68.8" xlink:href="#linear-gradient"/></defs><rect class="cls-1" x="-15" y="-5.5" width="177" height="177"/><path class="cls-2" d="M61.8,59.86c2.12-9.69,19.64-17.08,39.88-17.15-1.06-.08-2.13-.14-3.22-.18-21.58-.76-40.88,6.89-43.12,17.1s13.45,19.1,35,19.86c1.09,0,2.17.05,3.24,0C73.71,78.05,59.68,69.55,61.8,59.86Z"/><path class="cls-3" d="M61.22,67.92c8.12-8.86,24-13.37,36.42-10.59-.59-.22-1.2-.43-1.84-.62C83.16,53,66,57.47,57.44,66.79s-5.23,19.94,7.41,23.7c.64.19,1.29.36,2,.5C55.7,86.79,53.11,76.78,61.22,67.92Z"/><text class="cls-4" transform="translate(22.73 110.79)">E<tspan class="cls-5" x="11.07" y="0">-</tspan><tspan class="cls-6" x="17.91" y="0">SQ</tspan><tspan class="cls-7" x="42.94" y="0">U</tspan><tspan class="cls-6" x="55.83" y="0">ARE</tspan></text><text class="cls-8" transform="translate(23.8 123.01)">TRU<tspan class="cls-9" x="16.1" y="0">S</tspan><tspan x="20.86" y="0">TED HR </tspan><tspan class="cls-10" x="53.01" y="0">P</tspan><tspan x="58.19" y="0">A</tspan><tspan class="cls-9" x="63.92" y="0">R</tspan><tspan x="69.37" y="0">TNER</tspan></text><text class="cls-11" transform="translate(104.1 44.3)">2</text></svg>