<svg id="Layer_1" data-name="Layer 1" xmlns="http://www.w3.org/2000/svg" xmlns:xlink="http://www.w3.org/1999/xlink" viewBox="0 0 140 140"><defs><style>.cls-1{fill:url(#linear-gradient);}.cls-2{fill:url(#linear-gradient-2);}.cls-10,.cls-11,.cls-12,.cls-13,.cls-3,.cls-4,.cls-5,.cls-6,.cls-7,.cls-8,.cls-9{isolation:isolate;}.cls-4,.cls-5,.cls-6,.cls-7{font-size:15.33px;font-family:Montserrat-ExtraBold, Montserrat;font-weight:800;}.cls-10,.cls-11,.cls-12,.cls-4,.cls-5,.cls-6,.cls-7,.cls-8,.cls-9{fill:#d3d3d3;}.cls-4{letter-spacing:0.05em;}.cls-5{letter-spacing:0.06em;}.cls-6{letter-spacing:0.07em;}.cls-7{letter-spacing:0.07em;}.cls-10,.cls-11,.cls-12,.cls-8,.cls-9{font-size:7.03px;font-family:Montserrat-Bold, Montserrat;font-weight:700;}.cls-8{letter-spacing:0.05em;}.cls-9{letter-spacing:0.04em;}.cls-10{letter-spacing:0.01em;}.cls-11{letter-spacing:0.05em;}.cls-12{letter-spacing:0.04em;}.cls-13{font-size:9.66px;fill:#92bce1;font-family:Mshtakan;letter-spacing:0.07em;}</style><linearGradient id="linear-gradient" x1="56.02" y1="659.45" x2="102.58" y2="659.45" gradientTransform="translate(0 -608)" gradientUnits="userSpaceOnUse"><stop offset="0" stop-color="#58c8e0"/><stop offset="1" stop-color="#243a77"/></linearGradient><linearGradient id="linear-gradient-2" x1="53.59" y1="671.65" x2="98.54" y2="671.65" xlink:href="#linear-gradient"/></defs><path class="cls-1" d="M62.7,50.31c2.12-9.69,19.64-17.08,39.88-17.15-1.06-.08-2.13-.14-3.22-.18-21.58-.76-40.88,6.89-43.12,17.1s13.45,19.1,35,19.86c1.09,0,2.17,0,3.24,0C74.61,68.5,60.58,60,62.7,50.31Z"/><path class="cls-2" d="M62.12,58.37c8.12-8.86,24-13.37,36.42-10.59-.59-.22-1.2-.43-1.84-.62-12.64-3.71-29.8.76-38.36,10.08s-5.23,19.94,7.41,23.7c.64.19,1.29.36,2,.5C56.6,77.24,54,67.23,62.12,58.37Z"/><g class="cls-3"><text class="cls-4" transform="translate(23.63 101.24)">E</text><text class="cls-5" transform="translate(34.7 101.24)">-</text><text class="cls-6" transform="translate(41.54 101.24)">SQ</text><text class="cls-5" transform="translate(66.57 101.24)">U</text><text class="cls-7" transform="translate(79.46 101.24)">ARE</text></g><g class="cls-3"><text class="cls-8" transform="translate(24.7 113.46)">TRU</text><text class="cls-9" transform="translate(40.8 113.46)">S</text><text class="cls-8" transform="translate(45.56 113.46)">TED HR </text><text class="cls-10" transform="translate(77.71 113.46)">P</text><text class="cls-11" transform="translate(82.89 113.46)">A</text><text class="cls-12" transform="translate(88.62 113.46)">R</text><text class="cls-8" transform="translate(94.07 113.46)">TNER</text></g><text class="cls-13" transform="translate(105 34.75)">2</text></svg>