<?xml version="1.0" encoding="UTF-8"?>
<!DOCTYPE svg PUBLIC "-//W3C//DTD SVG 1.1//EN" "http://www.w3.org/Graphics/SVG/1.1/DTD/svg11.dtd">
<svg xmlns="http://www.w3.org/2000/svg" version="1.1" width="140px" height="140px" style="shape-rendering:geometricPrecision; text-rendering:geometricPrecision; image-rendering:optimizeQuality; fill-rule:evenodd; clip-rule:evenodd" xmlns:xlink="http://www.w3.org/1999/xlink">
<g><path style="opacity:0.706" fill="#556f94" d="M 103.5,35.5 C 108.828,35.0358 110.161,36.8691 107.5,41C 108.167,41.6667 108.833,42.3333 109.5,43C 107.5,43.6667 105.5,43.6667 103.5,43C 104.833,41.3333 106.167,39.6667 107.5,38C 106.675,36.3117 105.675,36.1451 104.5,37.5C 103.702,37.0431 103.369,36.3764 103.5,35.5 Z"/></g>
<g><path style="opacity:0.182" fill="#1a2e59" d="M 85.5,42.5 C 89.6463,41.353 93.9796,41.1864 98.5,42C 95.5219,42.696 92.5219,43.196 89.5,43.5C 88.4324,42.5655 87.099,42.2322 85.5,42.5 Z"/></g>
<g><path style="opacity:0.725" fill="#305f89" d="M 85.5,42.5 C 87.099,42.2322 88.4324,42.5655 89.5,43.5C 83.6406,44.5648 77.974,46.2315 72.5,48.5C 71.8166,46.8235 70.4832,46.1568 68.5,46.5C 73.7587,43.9111 79.4253,42.5778 85.5,42.5 Z"/></g>
<g><path style="opacity:1" fill="#428eaf" d="M 68.5,46.5 C 70.4832,46.1568 71.8166,46.8235 72.5,48.5C 67.2632,50.6143 63.5965,54.281 61.5,59.5C 61.1667,59.5 60.8333,59.5 60.5,59.5C 60.6633,57.1432 60.4966,54.8098 60,52.5C 59.3292,53.2524 58.4959,53.5858 57.5,53.5C 60.3577,49.9905 64.0243,47.6571 68.5,46.5 Z"/></g>
<g><path style="opacity:1" fill="#4dabc8" d="M 60.5,59.5 C 60.3802,62.2048 61.3802,62.8715 63.5,61.5C 64.3857,62.325 64.719,63.325 64.5,64.5C 63.8056,67.5806 65.139,69.9139 68.5,71.5C 68.7373,72.791 68.404,73.791 67.5,74.5C 64.5766,73.705 61.9099,72.3716 59.5,70.5C 58.8165,70.8627 58.1499,71.1961 57.5,71.5C 57.7406,69.1016 57.0739,67.1016 55.5,65.5C 53.8727,61.2083 54.5394,57.2083 57.5,53.5C 58.4959,53.5858 59.3292,53.2524 60,52.5C 60.4966,54.8098 60.6633,57.1432 60.5,59.5 Z"/></g>
<g><path style="opacity:0.682" fill="#274c77" d="M 76.5,58.5 C 76.6107,57.8826 76.944,57.3826 77.5,57C 76.2068,56.51 74.8734,56.3433 73.5,56.5C 80.3174,54.0663 87.3174,53.8996 94.5,56C 88.3807,56.1751 82.3807,57.0084 76.5,58.5 Z"/></g>
<g><path style="opacity:0.976" fill="#367196" d="M 73.5,56.5 C 74.8734,56.3433 76.2068,56.51 77.5,57C 76.944,57.3826 76.6107,57.8826 76.5,58.5C 72.2211,59.9728 68.2211,61.9728 64.5,64.5C 64.719,63.325 64.3857,62.325 63.5,61.5C 61.3802,62.8715 60.3802,62.2048 60.5,59.5C 60.8333,59.5 61.1667,59.5 61.5,59.5C 62.1174,59.6107 62.6174,59.944 63,60.5C 66.1677,58.2777 69.6677,56.9444 73.5,56.5 Z"/></g>
<g><path style="opacity:0.948" fill="#469ab7" d="M 55.5,65.5 C 57.0739,67.1016 57.7406,69.1016 57.5,71.5C 55.6576,76.6044 56.3243,81.2711 59.5,85.5C 59.6716,86.4916 59.3382,87.1583 58.5,87.5C 54.4419,85.2541 52.1085,81.7541 51.5,77C 52.4209,72.9983 53.7542,69.165 55.5,65.5 Z"/></g>
<g><path style="opacity:0.749" fill="#31668c" d="M 68.5,71.5 C 72.155,73.3766 75.8217,75.0433 79.5,76.5C 78.791,77.404 77.791,77.7373 76.5,77.5C 73.0836,77.4725 70.0836,76.4725 67.5,74.5C 68.404,73.791 68.7373,72.791 68.5,71.5 Z"/></g>
<g><path style="opacity:0.133" fill="#1b325a" d="M 79.5,76.5 C 83.3019,76.7603 86.9686,77.5936 90.5,79C 85.5928,79.6347 80.9262,79.1347 76.5,77.5C 77.791,77.7373 78.791,77.404 79.5,76.5 Z"/></g>
<g><path style="opacity:0.675" fill="#2a5578" d="M 59.5,85.5 C 61.34,87.168 63.34,88.668 65.5,90C 62.7583,90.2952 60.425,89.4619 58.5,87.5C 59.3382,87.1583 59.6716,86.4916 59.5,85.5 Z"/></g>
<g><path style="opacity:0.554" fill="#75788a" d="M 24.5,98.5 C 24.5,102.5 24.5,106.5 24.5,110.5C 23.7757,106.635 23.1091,102.635 22.5,98.5C 22.9698,97.537 23.6365,97.537 24.5,98.5 Z"/></g>
<g><path style="opacity:0.913" fill="#cececf" d="M 24.5,98.5 C 26.8333,98.5 29.1667,98.5 31.5,98.5C 30.4479,100.256 28.7812,100.923 26.5,100.5C 26.5,101.5 26.5,102.5 26.5,103.5C 28.1667,103.5 29.8333,103.5 31.5,103.5C 30.8166,105.176 29.4832,105.843 27.5,105.5C 26.596,106.209 26.2627,107.209 26.5,108.5C 28.7812,108.077 30.4479,108.744 31.5,110.5C 29.3742,110.85 27.0408,110.85 24.5,110.5C 24.5,106.5 24.5,102.5 24.5,98.5 Z"/></g>
<g><path style="opacity:0.94" fill="#a6a7b0" d="M 55.5,98.5 C 62.2817,97.1247 65.4484,99.7913 65,106.5C 63.1652,108.503 62.1652,110.503 62,112.5C 52.9589,110.761 50.7922,106.094 55.5,98.5 Z M 57.5,101.5 C 61.35,101.701 62.35,103.534 60.5,107C 56.5369,107.118 55.5369,105.284 57.5,101.5 Z"/></g>
<g><path style="opacity:0.916" fill="#abacb4" d="M 66.5,98.5 C 67.8333,98.5 69.1667,98.5 70.5,98.5C 70.5,101.5 70.5,104.5 70.5,107.5C 71.5,107.5 72.5,107.5 73.5,107.5C 73.5,104.5 73.5,101.5 73.5,98.5C 75.1033,98.3118 76.4366,98.8118 77.5,100C 76.7117,103.076 76.2117,106.242 76,109.5C 72.76,111.036 69.76,110.703 67,108.5C 66.5017,105.183 66.335,101.85 66.5,98.5 Z"/></g>
<g><path style="opacity:0.928" fill="#b1b2b8" d="M 82.5,98.5 C 84.1439,98.2865 85.6439,98.6198 87,99.5C 88.0681,102.871 89.2347,106.204 90.5,109.5C 89.8333,109.833 89.1667,110.167 88.5,110.5C 87.1667,109.833 85.8333,109.167 84.5,108.5C 82.6663,109.754 80.6663,110.421 78.5,110.5C 79.6334,106.433 80.9668,102.433 82.5,98.5 Z"/></g>
<g><path style="opacity:0.929" fill="#b4b6bb" d="M 92.5,98.5 C 95.4475,98.2229 98.2809,98.5562 101,99.5C 101.743,101.441 101.576,103.274 100.5,105C 101.5,106.667 102.5,108.333 103.5,110C 100.196,111.042 98.0295,109.875 97,106.5C 96.51,107.793 96.3433,109.127 96.5,110.5C 95.1667,110.5 93.8333,110.5 92.5,110.5C 92.5,106.5 92.5,102.5 92.5,98.5 Z M 98.5,101.5 C 98.5,102.167 98.5,102.833 98.5,103.5C 95.8333,102.833 95.8333,102.167 98.5,101.5 Z"/></g>
<g><path style="opacity:0.916" fill="#c5c6c8" d="M 113.5,98.5 C 112.448,100.256 110.781,100.923 108.5,100.5C 108.5,101.5 108.5,102.5 108.5,103.5C 110.167,103.5 111.833,103.5 113.5,103.5C 112.817,105.176 111.483,105.843 109.5,105.5C 108.596,106.209 108.263,107.209 108.5,108.5C 110.781,108.077 112.448,108.744 113.5,110.5C 110.833,110.5 108.167,110.5 105.5,110.5C 105.5,106.5 105.5,102.5 105.5,98.5C 108.167,98.5 110.833,98.5 113.5,98.5 Z"/></g>
<g><path style="opacity:0.943" fill="#a2a4ad" d="M 42.5,98.5 C 45.1194,98.2317 47.6194,98.565 50,99.5C 50.1667,99.8333 50.3333,100.167 50.5,100.5C 48.5767,101.308 46.5767,101.808 44.5,102C 49.9853,102.46 51.652,105.127 49.5,110C 46.854,110.497 44.1873,110.664 41.5,110.5C 41.3433,109.127 41.51,107.793 42,106.5C 49.1585,107.715 49.1585,107.048 42,104.5C 41.3224,102.402 41.4891,100.402 42.5,98.5 Z"/></g>
<g><path style="opacity:0.264" fill="#474d67" d="M 31.5,98.5 C 32.404,99.209 32.7373,100.209 32.5,101.5C 30.8008,101.34 29.1341,101.506 27.5,102C 29.0581,102.21 30.3915,102.71 31.5,103.5C 29.8333,103.5 28.1667,103.5 26.5,103.5C 26.5,102.5 26.5,101.5 26.5,100.5C 28.7812,100.923 30.4479,100.256 31.5,98.5 Z"/></g>
<g><path style="opacity:0.261" fill="#474d67" d="M 113.5,98.5 C 114.404,99.209 114.737,100.209 114.5,101.5C 112.801,101.34 111.134,101.506 109.5,102C 111.058,102.21 112.391,102.71 113.5,103.5C 111.833,103.5 110.167,103.5 108.5,103.5C 108.5,102.5 108.5,101.5 108.5,100.5C 110.781,100.923 112.448,100.256 113.5,98.5 Z"/></g>
<g><path style="opacity:0.251" fill="#4c516a" d="M 98.5,101.5 C 95.8333,102.167 95.8333,102.833 98.5,103.5C 97.791,104.404 96.791,104.737 95.5,104.5C 95.5,103.167 95.5,101.833 95.5,100.5C 96.791,100.263 97.791,100.596 98.5,101.5 Z"/></g>
<g><path style="opacity:0.192" fill="#4d526b" d="M 85.5,104.5 C 84.8333,104.5 84.1667,104.5 83.5,104.5C 84.1667,101.833 84.8333,101.833 85.5,104.5 Z"/></g>
<g><path style="opacity:0.231" fill="#454b65" d="M 38.5,107.5 C 38.38,106.414 37.7133,105.747 36.5,105.5C 35.2867,105.747 34.62,106.414 34.5,107.5C 33.596,106.791 33.2627,105.791 33.5,104.5C 35.5,104.5 37.5,104.5 39.5,104.5C 39.7373,105.791 39.404,106.791 38.5,107.5 Z"/></g>
<g><path style="opacity:0.907" fill="#d2d3d2" d="M 38.5,107.5 C 37.1667,107.5 35.8333,107.5 34.5,107.5C 34.62,106.414 35.2867,105.747 36.5,105.5C 37.7133,105.747 38.38,106.414 38.5,107.5 Z"/></g>
<g><path style="opacity:0.275" fill="#474d67" d="M 27.5,105.5 C 28.5521,107.256 30.2188,107.923 32.5,107.5C 32.7373,108.791 32.404,109.791 31.5,110.5C 30.4479,108.744 28.7812,108.077 26.5,108.5C 26.2627,107.209 26.596,106.209 27.5,105.5 Z"/></g>
<g><path style="opacity:0.292" fill="#424863" d="M 109.5,105.5 C 109.369,106.239 109.536,106.906 110,107.5C 111.299,107.034 112.799,107.034 114.5,107.5C 114.737,108.791 114.404,109.791 113.5,110.5C 112.448,108.744 110.781,108.077 108.5,108.5C 108.263,107.209 108.596,106.209 109.5,105.5 Z"/></g>
<g><path style="opacity:0.835" fill="#787b8d" d="M 29.5,117.5 C 29.5,119.167 29.5,120.833 29.5,122.5C 28.8386,121.282 28.1719,119.949 27.5,118.5C 26.4104,119.391 26.4104,120.391 27.5,121.5C 26.675,122.386 25.675,122.719 24.5,122.5C 24.6427,120.738 24.3094,119.071 23.5,117.5C 25.5156,116.306 27.5156,116.306 29.5,117.5 Z"/></g>
<g><path style="opacity:0.829" fill="#a4a6af" d="M 49.5,117.5 C 49.5,117.833 49.5,118.167 49.5,118.5C 48.0568,119.335 47.0568,120.668 46.5,122.5C 45.5713,121.311 45.238,119.978 45.5,118.5C 46.5676,117.566 47.901,117.232 49.5,117.5 Z"/></g>
<g><path style="opacity:0.299" fill="#4f556d" d="M 53.5,118.5 C 53.5,118.167 53.5,117.833 53.5,117.5C 54.1667,117.5 54.8333,117.5 55.5,117.5C 55.5,119.167 55.5,120.833 55.5,122.5C 54.8333,122.5 54.1667,122.5 53.5,122.5C 53.5,122.167 53.5,121.833 53.5,121.5C 54.8333,120.5 54.8333,119.5 53.5,118.5 Z"/></g>
<g><path style="opacity:0.31" fill="#4d536b" d="M 68.5,117.5 C 69.1667,117.5 69.8333,117.5 70.5,117.5C 70.5,119.167 70.5,120.833 70.5,122.5C 69.8333,122.5 69.1667,122.5 68.5,122.5C 68.5,120.833 68.5,119.167 68.5,117.5 Z"/></g>
<g><path style="opacity:0.852" fill="#818394" d="M 94.5,122.5 C 94.7678,120.901 94.4345,119.568 93.5,118.5C 93.1667,118.5 92.8333,118.5 92.5,118.5C 92.5,118.167 92.5,117.833 92.5,117.5C 94.0348,116.212 95.7015,116.212 97.5,117.5C 97.2155,119.759 96.2155,121.426 94.5,122.5 Z"/></g>
<g><path style="opacity:0.311" fill="#7f8192" d="M 108.5,117.5 C 108.5,117.833 108.5,118.167 108.5,118.5C 107.884,119.798 107.884,120.798 108.5,121.5C 108.5,121.833 108.5,122.167 108.5,122.5C 105.319,122.258 102.319,122.258 99.5,122.5C 98.1647,120.353 98.3314,118.353 100,116.5C 101.309,118.891 102.309,118.891 103,116.5C 104.909,116.673 106.743,117.007 108.5,117.5 Z"/></g>
<g><path style="opacity:0.305" fill="#4f556d" d="M 108.5,118.5 C 108.5,118.167 108.5,117.833 108.5,117.5C 109.167,117.5 109.833,117.5 110.5,117.5C 110.5,119.167 110.5,120.833 110.5,122.5C 109.833,122.5 109.167,122.5 108.5,122.5C 108.5,122.167 108.5,121.833 108.5,121.5C 109.833,120.5 109.833,119.5 108.5,118.5 Z"/></g>
<g><path style="opacity:0.843" fill="#afb0b8" d="M 32.5,117.5 C 32.0825,118.222 31.4158,118.722 30.5,119C 31.1667,119.333 31.8333,119.667 32.5,120C 31.5842,120.278 30.9175,120.778 30.5,121.5C 30.5,122.167 30.1667,122.5 29.5,122.5C 29.5,120.833 29.5,119.167 29.5,117.5C 30.3478,116.375 31.3478,116.375 32.5,117.5 Z"/></g>
<g><path style="opacity:0.82" fill="#7a7d8e" d="M 49.5,117.5 C 47.901,117.232 46.5676,117.566 45.5,118.5C 41.9438,118.275 41.6105,119.108 44.5,121C 43.9915,122.169 43.1581,123.002 42,123.5C 39.6667,122.833 37.3333,122.167 35,121.5C 34.941,115.852 35.6076,115.519 37,120.5C 37.2896,118.956 37.9563,117.623 39,116.5C 42.4093,117.306 45.9093,117.64 49.5,117.5 Z"/></g>
<g><path style="opacity:0.871" fill="#9395a1" d="M 53.5,117.5 C 53.5,117.833 53.5,118.167 53.5,118.5C 53.4226,119.75 52.756,120.583 51.5,121C 52.0944,121.464 52.7611,121.631 53.5,121.5C 53.5,121.833 53.5,122.167 53.5,122.5C 52.1667,122.5 50.8333,122.5 49.5,122.5C 49.5,121.167 49.5,119.833 49.5,118.5C 49.5,118.167 49.5,117.833 49.5,117.5C 50.9613,116.314 52.2946,116.314 53.5,117.5 Z"/></g>
<g><path style="opacity:0.867" fill="#afb0b8" d="M 73.5,117.5 C 73.0825,118.222 72.4158,118.722 71.5,119C 72.1667,119.333 72.8333,119.667 73.5,120C 72.5842,120.278 71.9175,120.778 71.5,121.5C 71.5,122.167 71.1667,122.5 70.5,122.5C 70.5,120.833 70.5,119.167 70.5,117.5C 71.3478,116.375 72.3478,116.375 73.5,117.5 Z"/></g>
<g><path style="opacity:0.686" fill="#848696" d="M 81.5,120.5 C 79.9557,120.703 78.6223,121.37 77.5,122.5C 76.3691,120.926 76.2025,119.259 77,117.5C 79.7776,116.315 81.2776,117.315 81.5,120.5 Z"/></g>
<g><path style="opacity:0.882" fill="#b0b1b8" d="M 113.5,117.5 C 113.082,118.222 112.416,118.722 111.5,119C 112.308,119.308 112.975,119.808 113.5,120.5C 113.154,121.696 112.654,121.696 112,120.5C 111.536,121.094 111.369,121.761 111.5,122.5C 111.167,122.5 110.833,122.5 110.5,122.5C 110.5,120.833 110.5,119.167 110.5,117.5C 111.348,116.375 112.348,116.375 113.5,117.5 Z"/></g>
<g><path style="opacity:0.529" fill="#595d75" d="M 113.5,117.5 C 116.296,121.101 115.63,122.767 111.5,122.5C 111.369,121.761 111.536,121.094 112,120.5C 112.654,121.696 113.154,121.696 113.5,120.5C 112.975,119.808 112.308,119.308 111.5,119C 112.416,118.722 113.082,118.222 113.5,117.5 Z"/></g>
<g><path style="opacity:0.831" fill="#9496a3" d="M 55.5,122.5 C 55.5,120.833 55.5,119.167 55.5,117.5C 55.56,116.957 55.8933,116.624 56.5,116.5C 60.0318,117.158 61.0318,118.992 59.5,122C 58.2068,122.49 56.8734,122.657 55.5,122.5 Z M 56.5,119.5 C 59.0009,119.511 59.1676,120.178 57,121.5C 56.5357,120.906 56.369,120.239 56.5,119.5 Z"/></g>
<g><path style="opacity:0.757" fill="#888a99" d="M 68.5,117.5 C 68.5,119.167 68.5,120.833 68.5,122.5C 67.1984,121.193 65.865,121.193 64.5,122.5C 63.1647,120.353 63.3314,118.353 65,116.5C 66,119.167 67,119.167 68,116.5C 68.3988,116.728 68.5654,117.062 68.5,117.5 Z"/></g>
<g><path style="opacity:0.757" fill="#7a7d8e" d="M 32.5,117.5 C 33.7879,119.035 33.7879,120.701 32.5,122.5C 31.8165,122.137 31.1499,121.804 30.5,121.5C 30.9175,120.778 31.5842,120.278 32.5,120C 31.8333,119.667 31.1667,119.333 30.5,119C 31.4158,118.722 32.0825,118.222 32.5,117.5 Z"/></g>
<g><path style="opacity:0.78" fill="#7a7d8e" d="M 73.5,117.5 C 74.7879,119.035 74.7879,120.701 73.5,122.5C 72.8165,122.137 72.1499,121.804 71.5,121.5C 71.9175,120.778 72.5842,120.278 73.5,120C 72.8333,119.667 72.1667,119.333 71.5,119C 72.4158,118.722 73.0825,118.222 73.5,117.5 Z"/></g>
<g><path style="opacity:0.843" fill="#898c9a" d="M 92.5,117.5 C 92.5,117.833 92.5,118.167 92.5,118.5C 92.8333,122.5 93.1667,122.5 93.5,118.5C 94.4345,119.568 94.7678,120.901 94.5,122.5C 90.462,122.115 86.462,122.115 82.5,122.5C 81.7025,122.043 81.3691,121.376 81.5,120.5C 83.5692,115.282 85.4025,115.615 87,121.5C 86.8677,117.11 88.701,115.777 92.5,117.5 Z"/></g>
</svg>
